<?xml version="1.0" standalone="no"?>
<!DOCTYPE svg PUBLIC "-//W3C//DTD SVG 20010904//EN"
 "http://www.w3.org/TR/2001/REC-SVG-20010904/DTD/svg10.dtd">
<svg version="1.0" xmlns="http://www.w3.org/2000/svg"
 width="512.000000pt" height="512.000000pt" viewBox="0 0 512.000000 512.000000"
 preserveAspectRatio="xMidYMid meet">
<metadata>
Created by potrace 1.16, written by Peter Selinger 2001-2019
</metadata>
<g transform="translate(0.000000,512.000000) scale(0.100000,-0.100000)"
fill="#000000" stroke="none">
<path d="M2480 4779 c-503 -45 -925 -403 -1277 -1084 -201 -391 -405 -967
-575 -1628 -48 -191 -57 -327 -26 -428 50 -161 192 -283 419 -359 46 -15 85
-34 87 -42 2 -9 -52 -38 -160 -86 l-163 -72 -48 -119 c-58 -143 -64 -127 92
-268 415 -375 911 -605 1431 -663 52 -6 132 -15 177 -21 86 -11 273 -9 273 4
0 4 21 7 48 7 123 1 379 51 571 112 375 120 694 310 1000 595 l84 79 -60 134
-60 135 -152 74 c-99 49 -151 80 -151 90 0 11 23 24 68 40 257 89 438 232 503
398 31 80 32 215 0 333 -383 1446 -789 2235 -1329 2584 -219 142 -491 209
-752 185z m335 -849 c160 -30 293 -93 395 -187 122 -113 204 -256 340 -593 34
-85 91 -215 126 -288 72 -151 71 -146 5 -252 -22 -34 -30 -62 -35 -120 -10
-109 -52 -311 -87 -415 -114 -339 -312 -578 -590 -710 -120 -56 -221 -84 -331
-92 -104 -7 -182 7 -294 51 -433 175 -731 608 -814 1181 -7 44 -18 87 -25 95
-8 8 -27 44 -44 79 l-30 64 54 106 c29 59 94 203 145 321 158 371 246 512 385
617 104 79 238 132 390 153 76 11 331 5 410 -10z"/>
</g>
</svg>
