<?xml version="1.0" standalone="no"?>
<!DOCTYPE svg PUBLIC "-//W3C//DTD SVG 20010904//EN"
 "http://www.w3.org/TR/2001/REC-SVG-20010904/DTD/svg10.dtd">
<svg version="1.0" xmlns="http://www.w3.org/2000/svg"
 width="2500.000000pt" height="1306.000000pt" viewBox="0 0 2500.000000 1306.000000"
 preserveAspectRatio="xMidYMid meet">
<metadata>
Created by potrace 1.16, written by Peter Selinger 2001-2019
</metadata>
<g transform="translate(0.000000,1306.000000) scale(0.100000,-0.100000)"
fill="#000000" stroke="none">
<path d="M5169 12837 c-199 -75 -254 -331 -101 -469 57 -51 96 -69 162 -75
120 -11 219 54 282 185 26 54 30 72 25 115 -10 94 -77 191 -165 237 -36 18
-161 23 -203 7z"/>
<path d="M7009 12484 c-28 -34 -45 -68 -64 -129 -10 -33 -24 -78 -31 -100 -17
-53 -98 -318 -131 -425 -44 -146 -40 -143 -118 -115 -22 8 -59 15 -82 15 -37
0 -49 -6 -82 -39 -52 -52 -71 -91 -78 -157 -12 -114 87 -219 207 -218 96 0
168 57 196 153 9 31 20 63 25 73 4 9 15 43 23 76 9 32 27 92 40 133 13 41 36
115 51 164 56 182 50 170 82 168 32 -2 60 -8 232 -57 68 -19 128 -39 134 -45
8 -8 5 -28 -7 -68 -121 -396 -114 -376 -135 -367 -27 11 -94 23 -132 24 -109
1 -196 -163 -149 -283 45 -114 174 -176 266 -129 58 30 124 112 124 156 0 9
19 71 84 276 8 25 26 86 41 135 15 50 40 131 55 180 90 289 92 299 88 347 -8
76 -41 101 -183 138 -38 10 -95 25 -125 35 -30 9 -73 20 -95 24 -22 4 -62 15
-89 25 -81 28 -129 31 -147 10z"/>
<path d="M5615 12338 c-44 -26 -81 -83 -90 -140 -10 -55 31 -139 82 -171 85
-54 139 -44 216 38 70 76 78 96 62 156 -25 94 -71 132 -164 137 -54 2 -73 -1
-106 -20z"/>
<path d="M9495 11640 c-117 -8 -323 -43 -380 -64 -22 -9 -48 -15 -59 -16 -35
0 -269 -91 -385 -149 -195 -97 -361 -209 -509 -342 -42 -38 -80 -69 -84 -69
-11 0 -10 48 1 55 21 12 86 175 142 355 12 36 27 77 35 92 19 36 18 54 -6 78
-26 26 -100 26 -155 1 -78 -35 -115 -94 -195 -316 -12 -33 -26 -68 -31 -77 -5
-10 -22 -55 -38 -100 -16 -46 -39 -108 -51 -138 -12 -30 -34 -93 -50 -139 -16
-47 -34 -89 -40 -95 -5 -5 -10 -19 -10 -31 0 -12 -4 -25 -9 -30 -5 -6 -16 -30
-25 -55 -8 -25 -24 -67 -34 -95 -11 -27 -34 -88 -52 -135 -35 -91 -61 -158
-78 -202 -20 -49 -44 -56 -212 -60 -155 -4 -156 -4 -230 -40 -156 -74 -240
-204 -240 -371 0 -91 18 -136 76 -186 71 -63 114 -75 254 -75 125 1 130 2 242
49 16 7 18 -155 21 -2927 3 -2054 7 -2955 15 -3008 52 -353 149 -635 321 -925
144 -245 370 -498 595 -667 144 -107 406 -254 571 -319 l30 -12 -25 -7 c-14
-4 -106 -10 -205 -14 -221 -8 -338 -22 -379 -43 -18 -10 -26 -18 -18 -21 7 -2
25 -15 39 -28 14 -13 42 -26 62 -30 20 -3 49 -10 65 -15 16 -5 56 -9 90 -9 34
0 97 -7 140 -15 44 -8 93 -13 110 -10 17 4 51 2 76 -4 50 -11 375 -21 805 -25
182 -2 287 -6 301 -14 11 -6 33 -9 50 -6 96 14 174 16 174 5 0 -13 27 -15 32
-2 2 6 21 6 48 1 25 -4 128 -8 230 -9 221 -2 660 -10 820 -16 195 -8 2221 -8
2465 0 307 9 462 13 695 19 107 2 214 8 237 11 24 4 55 3 71 -3 18 -6 35 -6
45 -1 9 6 180 12 379 15 200 3 441 9 537 13 201 8 633 -4 660 -18 10 -6 57
-13 105 -15 47 -3 96 -12 108 -19 13 -8 48 -19 78 -25 30 -6 82 -16 115 -23
33 -6 71 -17 85 -23 14 -7 43 -14 65 -15 22 -1 65 -8 95 -15 30 -8 91 -22 135
-32 44 -10 94 -24 110 -32 37 -17 85 -61 85 -77 0 -7 -32 -17 -77 -24 -115
-18 -152 -30 -163 -51 -14 -26 3 -34 121 -61 69 -15 148 -23 294 -29 295 -11
468 8 580 63 51 25 47 20 56 75 5 26 13 71 18 101 12 66 2 122 -38 202 -27 54
-99 169 -112 179 -9 8 -174 238 -277 390 -51 74 -142 207 -203 295 -186 269
-289 424 -289 434 0 12 13 16 125 36 50 9 158 30 240 45 83 16 182 34 220 40
39 6 102 17 140 24 106 19 87 35 253 -209 142 -207 416 -614 432 -639 8 -14
12 -27 9 -31 -4 -3 -49 -14 -102 -24 -114 -22 -176 -55 -215 -113 -24 -38 -27
-50 -26 -127 2 -113 34 -178 144 -294 44 -47 80 -87 80 -91 0 -3 -8 -6 -17 -6
-27 0 -176 -39 -186 -49 -16 -16 5 -38 51 -54 114 -40 459 -63 630 -42 218 27
288 48 318 93 12 19 17 51 18 131 1 102 -1 108 -33 171 -18 36 -84 137 -145
225 -62 88 -167 241 -235 340 -67 99 -165 243 -218 320 -53 77 -152 223 -221
325 -69 102 -167 246 -217 320 -50 74 -134 197 -185 274 -102 150 -152 201
-239 243 -69 34 -167 41 -259 19 -89 -21 -95 -17 -88 58 3 34 5 195 5 359 1
245 3 297 15 297 7 0 19 -7 27 -16 32 -39 92 -59 179 -59 72 0 94 4 146 28 64
30 136 96 170 157 32 56 48 129 47 215 0 86 18 30 -303 958 -44 126 -69 212
-63 218 7 7 183 110 351 205 23 13 61 35 85 48 23 13 78 44 122 69 61 35 83
43 91 34 12 -12 30 -60 84 -217 16 -47 54 -157 85 -245 90 -256 91 -261 69
-286 -10 -11 -49 -36 -86 -56 -92 -48 -152 -103 -182 -167 -33 -70 -40 -119
-27 -191 29 -156 143 -272 286 -290 66 -9 123 7 208 57 108 65 145 122 165
258 16 109 9 136 -128 530 -39 113 -87 250 -105 305 -104 314 -299 866 -318
899 -44 80 -142 103 -228 55 -70 -40 -257 -148 -334 -192 -38 -22 -82 -48 -97
-58 -15 -11 -30 -19 -33 -19 -3 0 -48 -25 -100 -55 -96 -57 -115 -64 -115 -42
0 6 -1 705 -4 1552 -2 1030 -7 1563 -14 1610 -26 167 -80 378 -122 480 -5 11
-12 31 -16 45 -4 14 -19 52 -34 85 -16 33 -39 85 -53 116 -36 81 -206 353
-237 379 -3 3 -19 23 -36 45 -131 177 -358 375 -595 520 -250 153 -510 249
-832 307 l-122 23 -2975 1 c-1636 1 -3020 -2 -3075 -6z m3535 -1199 c675 -97
1287 -339 1792 -707 373 -273 800 -715 1045 -1084 132 -198 224 -369 315 -580
22 -52 46 -109 54 -126 24 -55 113 -330 140 -432 102 -394 147 -817 124 -1174
-23 -369 -58 -583 -149 -918 -19 -70 -101 -310 -121 -355 -5 -11 -23 -54 -40
-95 -58 -140 -224 -462 -241 -468 -5 -2 -9 -8 -9 -12 0 -9 -80 -142 -91 -150
-3 -3 -18 -25 -34 -49 -15 -25 -38 -56 -51 -70 -13 -14 -24 -29 -24 -32 0 -13
-138 -178 -144 -172 -3 3 -6 0 -6 -7 0 -7 -16 -27 -35 -46 -19 -18 -35 -37
-35 -42 0 -6 -9 -8 -20 -5 -13 4 -20 0 -20 -10 0 -21 -27 -42 -33 -25 -4 8 -6
7 -6 -4 -1 -10 -8 -18 -17 -18 -10 0 -14 -6 -10 -15 3 -8 1 -15 -4 -15 -6 0
-10 7 -10 15 0 8 -5 15 -11 15 -5 0 -8 -4 -4 -9 3 -5 1 -12 -5 -16 -5 -3 -10
0 -10 7 0 10 -2 10 -9 -1 -5 -8 -14 -10 -21 -6 -8 5 -11 4 -7 -2 4 -5 -6 -16
-21 -24 -15 -8 -39 -25 -53 -39 -59 -55 -87 -74 -74 -47 4 6 -6 -3 -22 -20
-15 -18 -44 -38 -63 -44 -19 -7 -46 -23 -59 -36 -13 -12 -30 -23 -37 -23 -8 0
-13 -3 -13 -7 4 -23 -4 -32 -28 -35 -16 -2 -28 -9 -28 -17 0 -8 -7 -17 -15
-20 -8 -3 -34 -18 -57 -33 -24 -16 -47 -28 -52 -28 -5 0 -11 -3 -13 -7 -6 -14
-67 -53 -82 -53 -8 0 -19 -6 -23 -13 -8 -13 -35 -27 -49 -26 -4 0 -10 -3 -13
-8 -3 -5 -25 -20 -48 -33 -24 -13 -43 -27 -43 -32 0 -4 -4 -8 -10 -8 -5 0 -31
-13 -58 -29 -27 -16 -60 -32 -73 -36 -13 -4 -26 -11 -29 -15 -5 -7 -256 -130
-266 -130 -3 0 -38 -14 -77 -31 -113 -49 -130 -56 -167 -69 -19 -7 -44 -16
-55 -20 -11 -5 -54 -18 -95 -30 -41 -12 -91 -26 -110 -32 -19 -6 -51 -15 -70
-18 -19 -4 -87 -21 -150 -38 -206 -54 -413 -83 -735 -100 -185 -10 -396 -4
-526 13 -19 3 -73 9 -121 15 -146 17 -239 31 -262 39 -11 5 -26 6 -32 4 -6 -2
-24 2 -40 8 -16 7 -33 11 -37 10 -4 0 -42 8 -85 19 -78 21 -93 25 -147 36 -16
3 -35 10 -40 15 -6 4 -26 11 -45 14 -45 8 -111 30 -161 54 -22 11 -53 23 -69
26 -17 4 -32 11 -35 16 -4 5 -14 9 -24 9 -10 0 -24 7 -31 15 -7 8 -20 15 -30
15 -10 0 -49 14 -87 31 -80 36 -115 52 -125 54 -5 2 -10 4 -13 5 -3 1 -8 3
-12 4 -8 2 -73 37 -103 55 -8 6 -30 16 -47 23 -18 7 -33 16 -33 20 0 5 -6 8
-13 8 -7 0 -39 18 -72 40 -33 22 -65 40 -71 40 -6 0 -17 7 -24 15 -7 8 -37 27
-66 41 -30 15 -59 35 -65 45 -5 11 -19 19 -29 19 -11 0 -25 9 -32 20 -7 11
-18 20 -25 20 -7 0 -17 9 -23 20 -6 11 -17 20 -25 20 -8 0 -15 5 -15 10 0 6
-6 10 -13 10 -8 0 -22 9 -32 20 -10 11 -27 22 -39 26 -11 4 -32 15 -45 25 -13
10 -27 16 -32 13 -5 -3 -9 2 -9 11 0 9 -13 21 -30 26 -27 10 -35 20 -31 41 0
5 -18 22 -42 39 -23 17 -45 38 -48 47 -4 9 -28 23 -54 31 -31 9 -50 21 -57 37
-6 13 -18 24 -27 24 -9 0 -25 14 -36 30 -11 16 -25 30 -32 30 -6 0 -25 13 -41
30 -17 16 -42 34 -56 40 -17 6 -24 14 -20 25 3 8 1 15 -4 15 -16 0 -24 -18
-12 -25 6 -4 8 -11 5 -16 -4 -5 -1 -9 4 -9 6 0 11 -6 11 -12 0 -7 -20 9 -45
36 -25 27 -45 55 -45 62 0 7 -9 20 -21 28 -12 8 -18 19 -14 25 3 6 -2 11 -12
11 -10 0 -27 13 -36 30 -10 16 -16 30 -13 30 3 0 -3 9 -14 20 -11 11 -24 20
-28 20 -5 0 -14 16 -22 35 -8 19 -24 45 -37 57 -13 12 -23 26 -23 30 0 5 -11
24 -25 42 -14 18 -25 38 -25 44 0 7 -10 23 -23 37 -47 53 -277 510 -277 551 0
7 -3 14 -8 16 -19 8 -137 382 -177 558 -9 41 -21 93 -26 115 -18 77 -50 301
-62 435 -14 165 -13 557 1 700 13 124 49 370 62 420 5 19 17 69 26 110 42 193
131 468 205 637 11 24 19 45 19 48 0 7 128 264 160 320 138 247 297 464 516
706 319 353 662 638 1009 837 70 40 350 182 359 182 3 0 29 11 58 24 175 80
451 169 683 220 180 40 200 44 326 61 212 30 291 34 624 30 267 -3 358 -8 475
-24z m4630 -4919 c17 -53 35 -106 40 -117 5 -11 28 -76 50 -145 23 -69 46
-134 50 -145 22 -49 46 -132 42 -147 -2 -10 -53 -47 -114 -83 -85 -50 -113
-63 -120 -53 -5 7 -7 175 -4 383 3 204 6 380 6 393 0 44 19 11 50 -86z m-402
-3290 c61 -92 151 -226 199 -298 117 -175 115 -170 100 -182 -7 -5 -50 -15
-96 -22 -99 -14 -160 -40 -209 -88 -42 -43 -62 -88 -63 -144 0 -41 -1 -42 -12
-18 -16 34 -31 43 -39 22 -6 -15 -7 -15 -7 1 -1 13 -7 18 -25 15 -13 -1 -31 4
-40 12 -26 20 -206 44 -426 54 -530 25 -610 32 -554 52 94 34 326 147 417 205
184 117 455 357 571 506 26 34 53 59 60 57 7 -3 63 -80 124 -172z"/>
<path d="M11750 8384 c-30 -3 -161 -11 -290 -19 -129 -8 -282 -21 -340 -29
-58 -8 -148 -20 -200 -26 -52 -7 -133 -19 -180 -27 -47 -8 -121 -21 -165 -28
-44 -7 -172 -32 -285 -55 -113 -23 -223 -45 -245 -49 -141 -25 -247 -107 -301
-232 -35 -82 -34 -215 4 -336 16 -50 39 -104 50 -121 12 -16 22 -35 22 -40 0
-6 32 -40 71 -76 104 -94 142 -100 444 -65 50 6 112 12 140 14 27 3 56 7 65
11 8 3 62 10 118 14 57 5 109 14 116 19 7 6 57 13 112 16 54 3 126 10 159 16
77 12 148 17 370 25 99 3 182 10 185 14 7 12 427 11 630 -1 91 -6 211 -12 268
-13 59 -1 107 -7 113 -13 8 -8 41 -10 100 -6 69 5 89 3 89 -7 0 -9 10 -11 36
-7 20 4 46 1 56 -4 11 -6 43 -12 71 -14 88 -5 141 -17 154 -33 11 -13 16 -14
37 -2 20 10 37 11 82 1 32 -6 70 -11 86 -11 16 0 43 -7 59 -16 17 -8 76 -21
132 -29 112 -14 159 -24 167 -35 3 -4 75 -24 160 -45 85 -21 157 -41 160 -45
4 -6 24 -12 80 -25 52 -12 78 -20 120 -41 27 -13 66 -24 85 -24 22 0 35 -5 35
-13 0 -8 29 -20 73 -31 39 -10 93 -29 118 -42 25 -13 48 -21 51 -18 3 2 34 -8
69 -24 73 -34 229 -92 246 -92 14 0 76 -32 84 -44 14 -18 145 -19 203 -1 31
10 56 21 56 25 0 4 18 20 40 35 43 29 106 109 132 165 65 139 75 344 24 452
-45 93 -109 144 -291 233 -152 74 -377 175 -390 175 -3 0 -24 9 -48 19 -73 34
-252 101 -268 101 -8 0 -19 4 -25 9 -13 12 -306 105 -454 145 -30 8 -89 24
-130 35 -41 11 -100 26 -130 32 -30 6 -84 17 -120 25 -147 33 -421 81 -535 94
-44 4 -134 15 -200 24 -66 8 -196 20 -290 26 -176 12 -688 21 -785 14z"/>
<path d="M11395 6990 c-208 -16 -480 -42 -487 -46 -4 -3 -56 -11 -115 -19
-116 -14 -410 -65 -533 -91 -141 -31 -215 -82 -265 -186 -49 -100 -42 -288 16
-415 10 -24 19 -46 19 -50 0 -16 127 -141 165 -164 38 -22 49 -23 205 -22 116
1 182 6 220 17 30 8 123 20 205 26 83 6 182 16 220 21 118 18 904 21 1092 4
89 -8 172 -17 185 -19 12 -3 82 -8 153 -11 157 -6 182 -10 221 -30 16 -8 41
-15 56 -15 15 0 49 -4 75 -10 26 -5 79 -12 117 -14 38 -3 73 -9 79 -15 5 -5
15 -7 22 -4 8 2 45 -4 84 -15 38 -11 72 -18 75 -15 3 3 36 -4 73 -17 109 -35
128 -40 154 -40 20 0 70 -16 169 -53 8 -3 29 -8 45 -12 17 -3 46 -10 65 -15
19 -5 56 -14 83 -21 26 -7 47 -18 47 -25 0 -11 31 -23 76 -29 12 -2 40 -15 62
-29 23 -14 55 -26 72 -26 16 0 30 -4 30 -10 0 -5 6 -7 13 -4 7 2 31 -7 52 -22
22 -15 57 -29 78 -32 23 -3 43 -13 50 -23 7 -12 23 -19 43 -19 18 0 38 -8 48
-19 19 -21 66 -40 174 -71 62 -17 152 -17 152 1 0 5 4 9 10 9 29 0 148 122
183 188 37 72 56 149 63 262 12 191 -48 301 -211 385 -354 185 -626 302 -910
392 -27 9 -81 27 -120 41 -38 13 -86 28 -105 33 -19 4 -107 26 -195 49 -175
45 -414 93 -570 116 -55 8 -107 17 -115 19 -9 3 -110 14 -225 26 -163 16 -298
21 -605 24 -217 2 -440 0 -495 -5z"/>
<path d="M11495 5734 c-332 -26 -753 -81 -950 -124 -49 -10 -125 -27 -169 -36
-96 -20 -163 -70 -209 -153 -58 -108 -45 -327 26 -445 34 -58 105 -136 123
-136 6 0 17 -7 25 -16 7 -8 21 -13 32 -10 11 3 29 -1 41 -9 17 -11 35 -12 96
-3 41 6 89 12 105 13 17 2 38 6 48 10 9 4 24 4 33 1 9 -3 46 -1 82 5 37 7 81
13 97 15 50 6 444 23 546 24 52 0 130 4 174 9 43 5 84 7 91 4 8 -3 27 0 44 5
20 8 30 8 30 1 0 -7 30 -9 80 -7 45 2 81 -1 83 -7 2 -5 76 -10 173 -11 173 -3
384 -22 384 -35 0 -4 15 -6 33 -3 17 3 57 -2 87 -10 35 -9 61 -11 71 -5 11 6
19 5 21 -2 2 -5 21 -12 43 -15 22 -2 76 -13 120 -23 44 -11 113 -22 153 -26
39 -4 75 -11 78 -16 3 -5 18 -9 33 -9 16 0 34 -7 42 -16 7 -8 21 -13 32 -10
10 2 37 -2 59 -10 22 -8 51 -14 64 -14 13 0 24 -4 24 -9 0 -10 82 -36 143 -46
20 -3 37 -10 37 -15 0 -5 14 -8 30 -8 17 1 38 -6 48 -15 9 -8 35 -19 57 -23
22 -4 49 -13 60 -20 11 -8 28 -14 38 -14 10 0 35 -11 55 -25 20 -14 44 -25 53
-25 9 0 22 -7 29 -14 12 -15 55 -32 102 -40 14 -2 35 -9 46 -15 30 -16 117
-13 159 4 42 18 133 106 156 150 41 81 61 169 61 276 1 69 -4 116 -13 135 -43
94 -60 119 -96 148 -36 29 -154 91 -305 159 -30 13 -82 37 -115 52 -33 15 -89
38 -125 52 -36 13 -74 28 -85 33 -31 14 -249 86 -360 118 -186 55 -399 104
-545 127 -58 9 -127 21 -155 26 -27 6 -97 15 -155 20 -58 5 -136 14 -175 19
-72 10 -701 21 -790 14z"/>
<path d="M5631 11400 c-54 -39 -78 -81 -87 -147 -6 -48 0 -71 60 -251 37 -108
71 -206 76 -217 4 -11 20 -56 35 -100 15 -44 31 -89 35 -100 5 -11 22 -60 39
-110 37 -111 193 -564 215 -624 9 -24 16 -50 16 -58 0 -14 -58 -73 -72 -73
-11 0 -130 -72 -172 -104 -163 -125 -161 -390 4 -557 104 -106 252 -119 411
-38 65 33 161 134 183 194 10 28 23 55 27 61 5 6 12 55 15 110 7 112 6 117
-146 554 -39 113 -95 275 -124 360 -30 85 -64 182 -76 215 -12 33 -30 87 -40
120 -32 102 -222 586 -240 610 -4 6 -15 39 -26 73 -19 64 -51 112 -77 112 -8
0 -33 -14 -56 -30z"/>
<path d="M4195 11274 c-34 -37 -39 -60 -22 -107 8 -23 22 -71 32 -107 9 -36
25 -90 35 -120 9 -30 25 -82 34 -115 44 -163 67 -242 76 -265 5 -14 14 -43 20
-66 13 -52 80 -129 125 -144 50 -17 146 -15 180 3 48 24 75 69 75 122 0 107
-87 175 -221 175 -49 0 -79 18 -79 46 0 7 -14 60 -31 116 -17 57 -34 121 -36
142 l-5 39 107 -6 c60 -4 146 -7 192 -7 77 0 84 -2 92 -22 11 -29 34 -105 56
-183 25 -92 56 -197 66 -225 4 -14 13 -44 19 -68 22 -84 119 -151 221 -152
109 0 169 46 169 130 0 37 -7 56 -31 89 -36 51 -77 69 -176 81 -41 4 -79 12
-83 17 -5 4 -13 26 -19 48 -5 22 -25 94 -45 160 -19 66 -49 167 -65 225 -43
147 -58 177 -93 189 -29 10 -108 15 -416 26 l-153 5 -24 -26z"/>
<path d="M5113 9381 c-66 -17 -133 -103 -133 -171 0 -93 91 -183 185 -183 68
0 99 24 139 108 20 42 36 87 36 102 0 37 -39 101 -76 124 -36 22 -105 31 -151
20z"/>
<path d="M4547 9359 c-50 -12 -111 -44 -138 -72 -110 -115 -112 -282 -5 -395
64 -69 168 -100 255 -77 82 21 141 68 141 112 0 13 4 31 10 41 5 9 22 45 38
79 26 55 28 68 21 110 -25 134 -186 235 -322 202z"/>
<path d="M20150 6011 c-46 -24 -62 -60 -63 -135 -1 -75 12 -100 63 -126 47
-24 84 -25 129 -2 54 27 76 64 76 130 -1 69 -29 113 -87 137 -50 20 -76 19
-118 -4z"/>
<path d="M19763 5696 c-53 -13 -115 -53 -132 -85 -24 -44 -42 -157 -36 -224 6
-62 11 -71 49 -110 55 -57 100 -77 175 -77 196 0 313 188 227 363 -32 66 -98
122 -156 132 -19 4 -44 8 -55 10 -11 2 -43 -2 -72 -9z"/>
<path d="M19605 4596 c-16 -7 -40 -24 -52 -38 -22 -24 -25 -35 -63 -303 -5
-33 -18 -121 -30 -195 -41 -263 -61 -396 -66 -440 -3 -25 -12 -79 -19 -120 -8
-41 -22 -128 -30 -193 -15 -109 -15 -122 0 -175 41 -139 124 -226 297 -306
119 -56 203 -73 278 -57 90 19 174 80 155 111 -4 6 -1 9 5 8 21 -5 42 72 37
133 -11 125 -96 212 -311 317 -120 59 -147 76 -152 97 -3 14 1 74 10 133 16
102 66 434 66 440 0 11 53 -9 186 -73 86 -41 158 -75 159 -75 2 0 63 -29 137
-64 214 -103 329 -156 335 -156 3 0 18 -10 35 -21 27 -19 29 -26 24 -58 -3
-20 -17 -115 -31 -211 -27 -186 -40 -273 -80 -520 -27 -164 -26 -197 8 -265
52 -107 157 -205 283 -265 96 -46 157 -61 249 -61 72 -1 88 3 124 25 22 15 41
33 41 42 0 8 -4 12 -10 9 -14 -8 -13 8 1 22 6 6 18 9 25 6 9 -3 14 1 14 12 0
9 7 23 15 31 18 19 20 100 3 158 -8 28 -33 62 -78 107 -57 58 -84 76 -210 137
-80 38 -154 79 -164 91 -18 20 -19 27 -7 104 7 45 19 127 27 182 8 55 21 141
29 190 60 376 86 571 81 598 -3 18 -20 50 -37 70 -34 41 -77 63 -734 377 -60
29 -179 86 -264 126 -167 80 -231 96 -286 70z"/>
</g>
</svg>
